<svg width="373" height="383" viewBox="0 0 373 383" fill="none" xmlns="http://www.w3.org/2000/svg">
  <rect width="326" height="182" rx="48" fill="black" />
  <path
    d="M96.424 89.152C101.416 92.32 104.68 97.504 104.68 104.32C104.68 116.224 94.984 124 82.984 124H54.76V56.8H81.064C92.776 56.8 102.28 64.384 102.28 76C102.28 81.568 100.072 85.984 96.424 89.152ZM81.064 71.2H70.12V83.104H81.064C84.52 83.104 86.92 80.608 86.92 77.152C86.92 73.696 84.616 71.2 81.064 71.2ZM82.984 109.6C86.824 109.6 89.32 106.912 89.32 103.168C89.32 99.424 86.824 96.736 82.984 96.736H70.12V109.6H82.984Z"
    fill="#FCD844" />
  <path
    d="M135.843 125.344C121.73 125.344 110.402 114.304 110.402 100C110.402 85.696 121.73 74.656 135.843 74.656C149.955 74.656 161.282 85.696 161.282 100C161.282 114.304 149.955 125.344 135.843 125.344ZM135.843 111.328C142.083 111.328 146.883 106.816 146.883 100C146.883 93.184 142.083 88.672 135.843 88.672C129.602 88.672 124.802 93.184 124.802 100C124.802 106.816 129.602 111.328 135.843 111.328ZM205.235 56.8H219.635V124H205.235V119.488C202.068 123.136 197.364 125.344 190.932 125.344C178.355 125.344 167.987 114.304 167.987 100C167.987 85.696 178.355 74.656 190.932 74.656C197.364 74.656 202.068 76.864 205.235 80.512V56.8ZM193.812 111.712C200.436 111.712 205.235 107.2 205.235 100C205.235 92.8 200.436 88.288 193.812 88.288C187.187 88.288 182.387 92.8 182.387 100C182.387 107.2 187.187 111.712 193.812 111.712ZM261.4 76H276.76L260.344 122.56C254.968 137.824 246.424 143.872 232.984 143.2V129.76C239.704 129.76 242.872 127.648 244.984 121.792L225.88 76H241.72L252.376 105.376L261.4 76Z"
    fill="white" />
  <rect x="51" y="201" width="322" height="182" rx="48" fill="black" />
  <path
    d="M146.424 290.152C151.416 293.32 154.68 298.504 154.68 305.32C154.68 317.224 144.984 325 132.984 325H104.76V257.8H131.064C142.776 257.8 152.28 265.384 152.28 277C152.28 282.568 150.072 286.984 146.424 290.152ZM131.064 272.2H120.12V284.104H131.064C134.52 284.104 136.92 281.608 136.92 278.152C136.92 274.696 134.616 272.2 131.064 272.2ZM132.984 310.6C136.824 310.6 139.32 307.912 139.32 304.168C139.32 300.424 136.824 297.736 132.984 297.736H120.12V310.6H132.984Z"
    fill="#FCD844" />
  <path
    d="M162.802 325V254.92H177.203V325H162.802ZM223.548 277H237.948V325H223.548V320.488C220.38 324.136 215.676 326.344 209.244 326.344C196.668 326.344 186.3 315.304 186.3 301C186.3 286.696 196.668 275.656 209.244 275.656C215.676 275.656 220.38 277.864 223.548 281.512V277ZM212.124 312.712C218.748 312.712 223.548 308.2 223.548 301C223.548 293.8 218.748 289.288 212.124 289.288C205.5 289.288 200.7 293.8 200.7 301C200.7 308.2 205.5 312.712 212.124 312.712ZM262.636 291.016C262.636 296.488 286.252 292.84 286.252 310.6C286.252 321.64 276.652 326.344 266.284 326.344C256.684 326.344 249.388 322.696 245.644 314.92L258.124 307.816C259.372 311.464 262.06 313.48 266.284 313.48C269.74 313.48 271.468 312.424 271.468 310.504C271.468 305.224 247.852 308.008 247.852 291.4C247.852 280.936 256.684 275.656 266.668 275.656C274.444 275.656 281.356 279.112 285.388 285.928L273.1 292.552C271.756 290.056 269.836 288.328 266.668 288.328C264.172 288.328 262.636 289.288 262.636 291.016ZM321.123 290.824H311.235V307.816C311.235 311.944 314.787 312.328 321.123 311.944V325C302.307 326.92 296.835 321.256 296.835 307.816V290.824H289.155V277H296.835V267.88L311.235 263.56V277H321.123V290.824Z"
    fill="white" />
</svg>
  